# File created by Blade
# Date/Time:  Wed Jan 28 15:39:58 2015
#---------------------------------------------------------
:version 1.10
:name HOM
:units
  mass 1.0
  length 1.000000
  angle deg
:documentation
     Acclaim Skeleton File
:root
   axis xyz
   order TX TY TZ RX RY RZ
   position 0.000000 0.000000 0.000000
   orientation 0 0 0
:bonedata
   begin
      id 1
      name Spine_dum
      direction 0.000000 1.000000 0.000000
      length 6.864287
      axis 0.0 0.0 0.0 xyz
   end
   begin
      id 2
      name LeftUpLeg_dum
      direction 1.000000 0.000000 0.000000
      length 4.117376
      axis 0.0 0.0 0.0 xyz
   end
   begin
      id 3
      name RightUpLeg_dum
      direction -1.000000 0.000000 0.000000
      length 4.117376
      axis 0.0 0.0 0.0 xyz
   end
   begin
      id 4
      name Spine
      direction 0.000000 1.000000 0.000000
      length 0.000000
      axis 0.0 0.0 0.0 xyz
      dof rx ry rz
   end
   begin
      id 5
      name Spine_dum1
      direction 0.000000 1.000000 0.000000
      length 15.393827
      axis 0.0 0.0 0.0 xyz
   end
   begin
      id 6
      name Spine_dum2
      direction 0.000000 1.000000 0.000000
      length 9.314826
      axis 0.0 0.0 0.0 xyz
   end
   begin
      id 7
      name Spine_dum3
      direction 0.000000 1.000000 0.000000
      length 9.314826
      axis 0.0 0.0 0.0 xyz
   end
   begin
      id 8
      name Head
      direction 0.000000 1.000000 0.000000
      length 4.527550
      axis 0.0 0.0 0.0 xyz
      dof rx ry rz
   end
   begin
      id 9
      name LeftShoulder
      direction 1.000000 0.000000 0.000000
      length 8.275398
      axis 0.0 0.0 -90.0 xyz
      dof rx ry rz
   end
   begin
      id 10
      name LeftArm
      direction 1.000000 0.000000 0.000000
      length 12.002200
      axis 0.0 0.0 -90.0 xyz
      dof rx ry rz
   end
   begin
      id 11
      name LeftForeArm
      direction 1.000000 0.000000 0.000000
      length 10.144633
      axis 0.0 0.0 -90.0 xyz
      dof ry rz rx
   end
   begin
      id 12
      name LeftHand
      direction 0.000000 0.000000 0.000000
      length 0.000000
      axis 0.0 0.0 -90.0 xyz
      dof rx ry rz
   end
   begin
      id 13
      name LeftHand_dum1
      direction 0.000000 0.000000 0.000000
      length 0.000000
      axis 0.0 0.0 -90.0 xyz
   end
   begin
      id 14
      name LeftHand_dum2
      direction 1.000000 0.000000 0.000000
      length 3.937000
      axis 0.0 0.0 -90.0 xyz
   end
   begin
      id 15
      name LeftHandThumb1
      direction 0.000000 0.000000 1.000000
      length 3.937000
      axis 0.0 0.0 -90.0 xyz
      dof rx rz ry
   end
   begin
      id 16
      name RightShoulder
      direction -1.000000 0.000000 0.000000
      length 8.275398
      axis 0.0 0.0 90.0 xyz
      dof rx ry rz
   end
   begin
      id 17
      name RightArm
      direction -1.000000 0.000000 0.000000
      length 12.002200
      axis 0.0 0.0 90.0 xyz
      dof rx ry rz
   end
   begin
      id 18
      name RightForeArm
      direction -1.000000 0.000000 0.000000
      length 10.144633
      axis 0.0 0.0 90.0 xyz
      dof ry rz rx
   end
   begin
      id 19
      name RightHand
      direction 0.000000 0.000000 0.000000
      length 0.000000
      axis 0.0 0.0 90.0 xyz
      dof rx ry rz
   end
   begin
      id 20
      name RightHand_dum1
      direction 0.000000 0.000000 0.000000
      length 0.000000
      axis 0.0 0.0 90.0 xyz
   end
   begin
      id 21
      name RightHand_dum2
      direction -1.000000 0.000000 0.000000
      length 3.937000
      axis 0.0 0.0 90.0 xyz
   end
   begin
      id 22
      name RightHandThumb1
      direction 0.000000 0.000000 1.000000
      length 3.937000
      axis 0.0 0.0 90.0 xyz
      dof rx rz ry
   end
   begin
      id 23
      name LeftUpLeg
      direction 0.000000 -1.000000 0.000000
      length 19.394322
      axis 0.0 0.0 0.0 xyz
      dof rx ry rz
   end
   begin
      id 24
      name LeftLeg
      direction 0.000000 -1.000000 0.000000
      length 17.609563
      axis 0.0 0.0 0.0 xyz
      dof rx ry rz
   end
   begin
      id 25
      name LeftFoot
      direction 0.000000 -0.258819 0.965926
      length 6.085393
      axis 15.0 0.0 0.0 xyz
      dof rx ry rz
   end
   begin
      id 26
      name LeftToeBase
      direction 0.000000 0.000000 1.000000
      length 2.952750
      axis 0.0 0.0 0.0 xyz
      dof rx ry rz
   end
   begin
      id 27
      name RightUpLeg
      direction 0.000000 -1.000000 0.000000
      length 19.394322
      axis 0.0 0.0 0.0 xyz
      dof rx ry rz
   end
   begin
      id 28
      name RightLeg
      direction 0.000000 -1.000000 0.000000
      length 17.609563
      axis 0.0 0.0 0.0 xyz
      dof rx ry rz
   end
   begin
      id 29
      name RightFoot
      direction 0.000000 -0.258819 0.965926
      length 6.085393
      axis 15.0 0.0 0.0 xyz
      dof rx ry rz
   end
   begin
      id 30
      name RightToeBase
      direction 0.000000 0.000000 1.000000
      length 2.952750
      axis 0.0 0.0 0.0 xyz
      dof rx ry rz
   end
:hierarchy
   begin
      root Spine_dum LeftUpLeg_dum RightUpLeg_dum
      Spine_dum Spine
      LeftUpLeg_dum LeftUpLeg
      RightUpLeg_dum RightUpLeg
      Spine Spine_dum1 Spine_dum2 Spine_dum3
      Spine_dum1 Head
      Spine_dum2 LeftShoulder
      Spine_dum3 RightShoulder
      LeftShoulder LeftArm
      LeftArm LeftForeArm
      LeftForeArm LeftHand
      LeftHand LeftHand_dum1 LeftHand_dum2
      LeftHand_dum1 LeftHandThumb1
      RightShoulder RightArm
      RightArm RightForeArm
      RightForeArm RightHand
      RightHand RightHand_dum1 RightHand_dum2
      RightHand_dum1 RightHandThumb1
      LeftUpLeg LeftLeg
      LeftLeg LeftFoot
      LeftFoot LeftToeBase
      RightUpLeg RightLeg
      RightLeg RightFoot
      RightFoot RightToeBase
   end

# File created by Blade
# Date/Time:  Wed Jan 28 15:40:07 2015
# Frame Rate: 120.000 fps
#------------------------------------------------------
:FULLY-SPECIFIED
:DEGREES
1154
root -8.422804 40.442098 -15.801396 18.415226 -48.477462 49.356737
Spine 13.305400 1.583007 23.189303
Head -35.169015 -33.454211 0.014570
LeftShoulder -19.925212 14.578126 -9.626496
LeftArm 6.252934 15.965324 -89.389058
LeftForeArm -15.511537 0.000000 6.737458
LeftHand -2.207751 -0.000000 -10.867789
LeftHandThumb1 -26.253704 0.000000 33.147579
RightShoulder -16.566308 7.134163 -46.907368
RightArm 48.789921 82.705406 69.079042
RightForeArm 1.666274 -0.000000 97.451438
RightHand -15.726206 -0.000000 -39.402274
RightHandThumb1 -24.326973 -0.000000 -32.862282
LeftUpLeg -14.481751 1.458267 18.759623
LeftLeg 151.360427 -0.000000 -0.000000
LeftFoot 26.412799 -0.420409 -24.047754
LeftToeBase 4.078099 -0.000000 -0.000000
RightUpLeg -60.205554 -11.838614 -20.098135
RightLeg 21.804839 -0.000000 -0.000000
RightFoot -26.205771 -19.746869 14.318634
RightToeBase 10.022082 -0.000000 -0.000000
1155
root -8.430284 40.446537 -15.797674 18.467380 -48.406102 49.361943
Spine 13.266042 1.580192 23.186382
Head -35.294125 -33.455798 0.056571
LeftShoulder -19.949250 14.631794 -9.654687
LeftArm 6.278071 15.951331 -89.359608
LeftForeArm -15.447360 -0.000000 6.755143
LeftHand -2.248608 -0.000000 -10.943663
LeftHandThumb1 -26.253704 0.000000 33.147579
RightShoulder -16.618407 7.076174 -46.914328
RightArm 49.495775 82.682008 69.809158
RightForeArm 1.725529 -0.000000 97.467850
RightHand -15.690678 -0.000000 -39.333711
RightHandThumb1 -24.326973 -0.000000 -32.862282
LeftUpLeg -14.467091 1.434512 18.756649
LeftLeg 151.347070 -0.000000 -0.000000
LeftFoot 26.463904 -0.444501 -24.090083
LeftToeBase 3.956466 -0.000000 -0.000000
RightUpLeg -60.157718 -11.826583 -20.170521
RightLeg 21.717859 -0.000000 -0.000000
RightFoot -26.195391 -19.951562 14.296751
RightToeBase 10.026369 -0.000000 -0.000000
1156
root -8.437596 40.451176 -15.793832 18.524186 -48.335326 49.363793
Spine 13.221218 1.552001 23.186793
Head -35.446336 -33.509221 0.146406
LeftShoulder -19.953890 14.618912 -9.663188
LeftArm 6.182631 15.863752 -89.375887
LeftForeArm -15.288975 0.000000 6.804769
LeftHand -2.267964 -0.000000 -11.036323
LeftHandThumb1 -26.253704 0.000000 33.147579
RightShoulder -16.643318 7.053798 -46.944285
RightArm 49.980409 82.661728 70.341346
RightForeArm 1.760630 -0.000000 97.492983
RightHand -15.600379 0.000000 -39.195236
RightHandThumb1 -24.326973 -0.000000 -32.862282
LeftUpLeg -14.431190 1.396138 18.751409
LeftLeg 151.343940 -0.000000 -0.000000
LeftFoot 26.481501 -0.489013 -24.189488
LeftToeBase 3.932409 -0.000000 -0.000000
RightUpLeg -60.111341 -11.808055 -20.246846
RightLeg 21.628932 -0.000000 -0.000000
RightFoot -26.138939 -20.196206 14.203847
RightToeBase 9.830772 -0.000000 -0.000000
1157
root -8.444833 40.456594 -15.789841 18.587187 -48.264363 49.376260
Spine 13.167228 1.547684 23.185698
Head -35.594650 -33.569505 0.223028
LeftShoulder -19.929466 14.555993 -9.663602
LeftArm 6.038023 15.810421 -89.387660
LeftForeArm -15.376249 -0.000000 6.828862
LeftHand -2.261249 0.000000 -11.078609
LeftHandThumb1 -26.253704 0.000000 33.147579
RightShoulder -16.682998 6.992440 -46.981845
RightArm 50.333917 82.653522 70.744257
RightForeArm 1.841040 -0.000000 97.534112
RightHand -15.553638 -0.000000 -39.164782
RightHandThumb1 -24.326973 -0.000000 -32.862282
LeftUpLeg -14.426345 1.407958 18.735314
LeftLeg 151.328932 -0.000000 -0.000000
LeftFoot 26.492542 -0.488282 -24.017889
LeftToeBase 3.927825 -0.000000 -0.000000
RightUpLeg -60.080609 -11.804298 -20.325466
RightLeg 21.552896 -0.000000 -0.000000
RightFoot -26.130097 -20.360867 14.214872
RightToeBase 9.787852 -0.000000 -0.000000
1158
root -8.452839 40.461976 -15.787283 18.652280 -48.189181 49.374097
Spine 13.131396 1.545888 23.189490
Head -35.740956 -33.585826 0.314419
LeftShoulder -19.965592 14.591001 -9.682735
LeftArm 6.060052 15.805896 -89.371973
LeftForeArm -15.377066 0.000000 6.836401
LeftHand -2.244621 0.000000 -11.021881
LeftHandThumb1 -26.253704 0.000000 33.147579
RightShoulder -16.683174 6.922984 -47.020948
RightArm 50.650541 82.734470 71.139100
RightForeArm 1.957742 -0.000000 97.582632
RightHand -15.480668 -0.000000 -39.071571
RightHandThumb1 -24.326973 -0.000000 -32.862282
LeftUpLeg -14.399165 1.419088 18.730502
LeftLeg 151.314418 -0.000000 -0.000000
LeftFoot 26.443989 -0.428410 -23.980895
LeftToeBase 4.067785 -0.000000 -0.000000
RightUpLeg -60.046086 -11.803736 -20.381656
RightLeg 21.480334 -0.000000 -0.000000
RightFoot -26.085517 -20.527174 14.166729
RightToeBase 9.847827 -0.000000 -0.000000
1159
root -8.459867 40.466719 -15.786625 18.710952 -48.116028 49.385917
Spine 13.104827 1.560202 23.165083
Head -35.769824 -33.462185 0.338875
LeftShoulder -20.069535 14.681493 -9.692546
LeftArm 6.210089 15.933506 -89.336176
LeftForeArm -15.441353 -0.000000 6.759784
LeftHand -2.325517 -0.000000 -11.023507
LeftHandThumb1 -26.253704 0.000000 33.147579
RightShoulder -16.727173 6.768532 -46.995438
RightArm 51.609102 82.802749 72.125994
RightForeArm 2.096370 0.000000 97.603009
RightHand -15.419856 -0.000000 -38.978062
RightHandThumb1 -24.326973 -0.000000 -32.862282
LeftUpLeg -14.368043 1.409976 18.724610
LeftLeg 151.314244 -0.000000 -0.000000
LeftFoot 26.373858 -0.386657 -24.058942
LeftToeBase 4.150885 -0.000000 -0.000000
RightUpLeg -60.019329 -11.794671 -20.463231
RightLeg 21.416584 -0.000000 -0.000000
RightFoot -26.056080 -20.729835 14.112202
RightToeBase 9.678875 -0.000000 -0.000000
1160
root -8.467538 40.469328 -15.786736 18.802323 -48.049583 49.364786
Spine 13.055228 1.601195 23.164819
Head -35.948065 -33.542875 0.507061
LeftShoulder -20.101823 14.707578 -9.658994
LeftArm 6.200601 15.951312 -89.358661
LeftForeArm -15.333844 -0.000000 6.754141
LeftHand -2.187762 -0.000000 -10.904960
LeftHandThumb1 -26.253704 0.000000 33.147579
RightShoulder -16.737373 6.665435 -46.987580
RightArm 51.586181 82.883556 72.129774
RightForeArm 2.268251 0.000000 97.647281
RightHand -15.355519 -0.000000 -38.911153
RightHandThumb1 -24.326973 -0.000000 -32.862282
LeftUpLeg -14.341274 1.419054 18.744845
LeftLeg 151.279253 -0.000000 -0.000000
LeftFoot 26.400217 -0.348210 -23.989695
LeftToeBase 4.000797 -0.000000 -0.000000
RightUpLeg -60.013790 -11.766541 -20.531243
RightLeg 21.377054 -0.000000 -0.000000
RightFoot -26.063238 -20.894235 14.141594
RightToeBase 9.588450 -0.000000 -0.000000
1161
root -8.476075 40.473097 -15.786686 18.882497 -47.965304 49.366768
Spine 13.002297 1.614299 23.162097
Head -36.087797 -33.546716 0.607790
LeftShoulder -20.151973 14.741721 -9.675601
LeftArm 6.220937 15.947103 -89.334539
LeftForeArm -15.253694 -0.000000 6.759851
LeftHand -2.344721 -0.000000 -10.927091
LeftHandThumb1 -26.253704 0.000000 33.147579
RightShoulder -16.783733 6.549869 -46.984936
RightArm 51.658999 82.911799 72.226281
RightForeArm 2.334052 0.000000 97.694575
RightHand -15.297140 -0.000000 -38.895370
RightHandThumb1 -24.326973 -0.000000 -32.862282
LeftUpLeg -14.319923 1.383086 18.766414
LeftLeg 151.261270 -0.000000 -0.000000
LeftFoot 26.359043 -0.362410 -23.967103
LeftToeBase 3.963399 -0.000000 -0.000000
RightUpLeg -60.019827 -11.789198 -20.573922
RightLeg 21.356213 -0.000000 -0.000000
RightFoot -26.057197 -21.027358 14.121748
RightToeBase 9.609418 -0.000000 -0.000000
1162
root -8.482661 40.475697 -15.786943 18.991625 -47.893664 49.361660
Spine 12.917546 1.668381 23.154654
Head -36.176949 -33.553540 0.703652
LeftShoulder -20.193118 14.763149 -9.678803
LeftArm 6.196846 15.918708 -89.317643
LeftForeArm -15.226630 0.000000 6.777810
LeftHand -2.255301 -0.000000 -10.834254
LeftHandThumb1 -26.253704 0.000000 33.147579
RightShoulder -16.831997 6.551026 -46.988126
RightArm 50.868867 82.917372 71.421796
RightForeArm 2.482350 -0.000000 97.717490
RightHand -15.174324 -0.000000 -38.828280
RightHandThumb1 -24.326973 -0.000000 -32.862282
LeftUpLeg -14.318334 1.394138 18.776015
LeftLeg 151.222706 -0.000000 -0.000000
LeftFoot 26.390643 -0.350878 -23.880543
LeftToeBase 3.885193 -0.000000 -0.000000
RightUpLeg -60.070913 -11.821962 -20.599441
RightLeg 21.360309 -0.000000 -0.000000
RightFoot -26.051875 -21.134631 14.106015
RightToeBase 9.557003 -0.000000 -0.000000
1163
root -8.491034 40.477837 -15.788866 19.082593 -47.823782 49.355196
Spine 12.879352 1.696295 23.131690
Head -36.240795 -33.424620 0.776886
LeftShoulder -20.251399 14.787439 -9.679253
LeftArm 6.182259 15.852023 -89.316837
LeftForeArm -15.068585 -0.000000 6.790052
LeftHand -2.189239 -0.000000 -10.802780
LeftHandThumb1 -26.253704 0.000000 33.147579
RightShoulder -16.888383 6.613105 -46.962605
RightArm 49.913693 82.910139 70.419213
RightForeArm 2.520606 -0.000000 97.737548
RightHand -15.219447 -0.000000 -38.692634
RightHandThumb1 -24.326973 -0.000000 -32.862282
LeftUpLeg -14.280706 1.416240 18.790302
LeftLeg 151.211816 -0.000000 -0.000000
LeftFoot 26.331557 -0.367767 -23.774156
LeftToeBase 3.765773 -0.000000 -0.000000
RightUpLeg -60.100042 -11.848423 -20.621940
RightLeg 21.350639 -0.000000 -0.000000
RightFoot -26.035472 -21.231164 14.090702
RightToeBase 9.450067 -0.000000 -0.000000
1164
root -8.499073 40.481613 -15.790688 19.175938 -47.750857 49.358268
Spine 12.816315 1.718847 23.126506
Head -36.347691 -33.431066 0.885146
LeftShoulder -20.278213 14.832409 -9.723933
LeftArm 6.175017 15.792494 -89.285370
LeftForeArm -14.969920 0.000000 6.817255
LeftHand -2.210235 -0.000000 -10.789886
LeftHandThumb1 -26.253704 0.000000 33.147579
RightShoulder -16.945515 6.614582 -46.962076
RightArm 49.314966 82.862765 69.777869
RightForeArm 2.498627 0.000000 97.786971
RightHand -15.204464 0.000000 -38.741976
RightHandThumb1 -24.326973 -0.000000 -32.862282
LeftUpLeg -14.269026 1.459148 18.779647
LeftLeg 151.179318 -0.000000 -0.000000
LeftFoot 26.342715 -0.343000 -23.678565
LeftToeBase 3.809910 -0.000000 -0.000000
RightUpLeg -60.148482 -11.895137 -20.641244
RightLeg 21.369177 -0.000000 -0.000000
RightFoot -26.037625 -21.286437 14.091039
RightToeBase 9.457129 -0.000000 -0.000000
